<svg width="1141.5999755859375" height="891.8400146484374" viewBox="-126.84444173177083,-445.9200073242187,1141.5999755859375,891.8400146484374" style="max-width: 100%; height: auto; font: 10px sans-serif;"><g fill="none" stroke="#555" stroke-opacity="0.4" stroke-width="1.5"><path d="M0,0C190.267,0,190.267,-222.96,380.533,-222.96"></path><path d="M0,0C190.267,0,190.267,222.96,380.533,222.96"></path><path d="M380.533,-222.96C570.8,-222.96,570.8,-297.28,761.067,-297.28"></path><path d="M380.533,-222.96C570.8,-222.96,570.8,-148.64,761.067,-148.64"></path><path d="M380.533,222.96C570.8,222.96,570.8,148.64,761.067,148.64"></path><path d="M380.533,222.96C570.8,222.96,570.8,297.28,761.067,297.28"></path></g><g stroke-linejoin="round" stroke-width="3"><g transform="translate(0,0)"><text dy="0.35em" x="6" text-anchor="start" stroke-width="3" stroke="white">root</text><circle fill="#555" r="2.5"></circle><text dy="0.35em" x="6" text-anchor="start">root</text></g><g transform="translate(380.5333251953125,-222.96000366210936)"><text dy="0.35em" x="6" text-anchor="start" stroke-width="3" stroke="white">child1</text><circle fill="#555" r="2.5"></circle><text dy="0.35em" x="6" text-anchor="start">child1</text></g><g transform="translate(380.5333251953125,222.96000366210936)"><text dy="0.35em" x="6" text-anchor="start" stroke-width="3" stroke="white">child2</text><circle fill="#555" r="2.5"></circle><text dy="0.35em" x="6" text-anchor="start">child2</text></g><g transform="translate(761.066650390625,-297.2800048828125)"><text dy="0.35em" x="-6" text-anchor="end" stroke-width="3" stroke="white">grandchild1</text><circle fill="#999" r="2.5"></circle><text dy="0.35em" x="-6" text-anchor="end">grandchild1</text></g><g transform="translate(761.066650390625,-148.64000244140624)"><text dy="0.35em" x="-6" text-anchor="end" stroke-width="3" stroke="white">grandchild2</text><circle fill="#999" r="2.5"></circle><text dy="0.35em" x="-6" text-anchor="end">grandchild2</text></g><g transform="translate(761.066650390625,148.64000244140624)"><text dy="0.35em" x="-6" text-anchor="end" stroke-width="3" stroke="white">grandchild3</text><circle fill="#999" r="2.5"></circle><text dy="0.35em" x="-6" text-anchor="end">grandchild3</text></g><g transform="translate(761.066650390625,297.2800048828125)"><text dy="0.35em" x="-6" text-anchor="end" stroke-width="3" stroke="white">grandchild4</text><circle fill="#999" r="2.5"></circle><text dy="0.35em" x="-6" text-anchor="end">grandchild4</text></g></g><text x="570.7999877929688" y="20" text-anchor="middle" font-size="16px" font-weight="bold">Phylogenetic Tree</text><text x="570.7999877929688" y="40" text-anchor="middle" font-size="12px">This is a phylogenetic tree generated using D3.js</text></svg>
